<mxfile host="Electron" agent="Mozilla/5.0 (X11; Linux x86_64) AppleWebKit/537.36 (KHTML, like Gecko) draw.io/24.7.17 Chrome/128.0.6613.36 Electron/32.0.1 Safari/537.36" version="24.7.17">
  <diagram id="C5RBs43oDa-KdzZeNtuy" name="Page-1">
    <mxGraphModel dx="1004" dy="630" grid="1" gridSize="10" guides="1" tooltips="1" connect="1" arrows="1" fold="1" page="1" pageScale="1" pageWidth="827" pageHeight="1169" math="0" shadow="0">
      <root>
        <mxCell id="WIyWlLk6GJQsqaUBKTNV-0" />
        <mxCell id="WIyWlLk6GJQsqaUBKTNV-1" parent="WIyWlLk6GJQsqaUBKTNV-0" />
        <mxCell id="sK-Bba4RvZeUdaHI4gVQ-7" value="" style="edgeStyle=orthogonalEdgeStyle;rounded=0;orthogonalLoop=1;jettySize=auto;html=1;entryX=0.5;entryY=0;entryDx=0;entryDy=0;" edge="1" parent="WIyWlLk6GJQsqaUBKTNV-1" source="sK-Bba4RvZeUdaHI4gVQ-4" target="sK-Bba4RvZeUdaHI4gVQ-8">
          <mxGeometry relative="1" as="geometry">
            <mxPoint x="650" y="430" as="targetPoint" />
          </mxGeometry>
        </mxCell>
        <mxCell id="sK-Bba4RvZeUdaHI4gVQ-4" value="Pra-prosesing" style="rounded=1;whiteSpace=wrap;html=1;" vertex="1" parent="WIyWlLk6GJQsqaUBKTNV-1">
          <mxGeometry x="305" y="320" width="120" height="60" as="geometry" />
        </mxCell>
        <mxCell id="sK-Bba4RvZeUdaHI4gVQ-11" value="" style="edgeStyle=orthogonalEdgeStyle;rounded=0;orthogonalLoop=1;jettySize=auto;html=1;" edge="1" parent="WIyWlLk6GJQsqaUBKTNV-1" source="sK-Bba4RvZeUdaHI4gVQ-8" target="sK-Bba4RvZeUdaHI4gVQ-10">
          <mxGeometry relative="1" as="geometry" />
        </mxCell>
        <mxCell id="sK-Bba4RvZeUdaHI4gVQ-8" value="IndoBERT embeding" style="rounded=1;whiteSpace=wrap;html=1;" vertex="1" parent="WIyWlLk6GJQsqaUBKTNV-1">
          <mxGeometry x="305" y="420" width="120" height="60" as="geometry" />
        </mxCell>
        <mxCell id="sK-Bba4RvZeUdaHI4gVQ-15" value="" style="edgeStyle=orthogonalEdgeStyle;rounded=0;orthogonalLoop=1;jettySize=auto;html=1;" edge="1" parent="WIyWlLk6GJQsqaUBKTNV-1" source="sK-Bba4RvZeUdaHI4gVQ-10" target="sK-Bba4RvZeUdaHI4gVQ-14">
          <mxGeometry relative="1" as="geometry" />
        </mxCell>
        <mxCell id="sK-Bba4RvZeUdaHI4gVQ-17" value="" style="edgeStyle=orthogonalEdgeStyle;rounded=0;orthogonalLoop=1;jettySize=auto;html=1;" edge="1" parent="WIyWlLk6GJQsqaUBKTNV-1" source="sK-Bba4RvZeUdaHI4gVQ-10" target="sK-Bba4RvZeUdaHI4gVQ-14">
          <mxGeometry relative="1" as="geometry" />
        </mxCell>
        <mxCell id="sK-Bba4RvZeUdaHI4gVQ-18" value="" style="edgeStyle=orthogonalEdgeStyle;rounded=0;orthogonalLoop=1;jettySize=auto;html=1;" edge="1" parent="WIyWlLk6GJQsqaUBKTNV-1" source="sK-Bba4RvZeUdaHI4gVQ-10" target="sK-Bba4RvZeUdaHI4gVQ-14">
          <mxGeometry relative="1" as="geometry" />
        </mxCell>
        <mxCell id="sK-Bba4RvZeUdaHI4gVQ-20" value="" style="edgeStyle=orthogonalEdgeStyle;rounded=0;orthogonalLoop=1;jettySize=auto;html=1;" edge="1" parent="WIyWlLk6GJQsqaUBKTNV-1" source="sK-Bba4RvZeUdaHI4gVQ-10" target="sK-Bba4RvZeUdaHI4gVQ-19">
          <mxGeometry relative="1" as="geometry">
            <Array as="points">
              <mxPoint x="365" y="585.5" />
              <mxPoint x="530" y="585.5" />
            </Array>
          </mxGeometry>
        </mxCell>
        <mxCell id="sK-Bba4RvZeUdaHI4gVQ-21" style="edgeStyle=orthogonalEdgeStyle;rounded=0;orthogonalLoop=1;jettySize=auto;html=1;entryX=0.5;entryY=0;entryDx=0;entryDy=0;" edge="1" parent="WIyWlLk6GJQsqaUBKTNV-1" source="sK-Bba4RvZeUdaHI4gVQ-10" target="sK-Bba4RvZeUdaHI4gVQ-12">
          <mxGeometry relative="1" as="geometry">
            <Array as="points">
              <mxPoint x="365" y="585.5" />
              <mxPoint x="210" y="585.5" />
            </Array>
          </mxGeometry>
        </mxCell>
        <mxCell id="sK-Bba4RvZeUdaHI4gVQ-10" value="LSTM classification sentimen" style="rounded=1;whiteSpace=wrap;html=1;" vertex="1" parent="WIyWlLk6GJQsqaUBKTNV-1">
          <mxGeometry x="305" y="515.5" width="120" height="60" as="geometry" />
        </mxCell>
        <mxCell id="sK-Bba4RvZeUdaHI4gVQ-26" style="edgeStyle=orthogonalEdgeStyle;rounded=0;orthogonalLoop=1;jettySize=auto;html=1;entryX=0.5;entryY=0;entryDx=0;entryDy=0;" edge="1" parent="WIyWlLk6GJQsqaUBKTNV-1" source="sK-Bba4RvZeUdaHI4gVQ-12" target="sK-Bba4RvZeUdaHI4gVQ-22">
          <mxGeometry relative="1" as="geometry">
            <Array as="points">
              <mxPoint x="210" y="735.5" />
              <mxPoint x="365" y="735.5" />
            </Array>
          </mxGeometry>
        </mxCell>
        <mxCell id="sK-Bba4RvZeUdaHI4gVQ-12" value="Positif" style="rounded=1;whiteSpace=wrap;html=1;" vertex="1" parent="WIyWlLk6GJQsqaUBKTNV-1">
          <mxGeometry x="150" y="645.5" width="120" height="60" as="geometry" />
        </mxCell>
        <mxCell id="sK-Bba4RvZeUdaHI4gVQ-24" style="edgeStyle=orthogonalEdgeStyle;rounded=0;orthogonalLoop=1;jettySize=auto;html=1;" edge="1" parent="WIyWlLk6GJQsqaUBKTNV-1" source="sK-Bba4RvZeUdaHI4gVQ-14" target="sK-Bba4RvZeUdaHI4gVQ-22">
          <mxGeometry relative="1" as="geometry" />
        </mxCell>
        <mxCell id="sK-Bba4RvZeUdaHI4gVQ-14" value="Netral" style="rounded=1;whiteSpace=wrap;html=1;" vertex="1" parent="WIyWlLk6GJQsqaUBKTNV-1">
          <mxGeometry x="305" y="645.5" width="120" height="60" as="geometry" />
        </mxCell>
        <mxCell id="sK-Bba4RvZeUdaHI4gVQ-23" style="edgeStyle=orthogonalEdgeStyle;rounded=0;orthogonalLoop=1;jettySize=auto;html=1;" edge="1" parent="WIyWlLk6GJQsqaUBKTNV-1" source="sK-Bba4RvZeUdaHI4gVQ-19" target="sK-Bba4RvZeUdaHI4gVQ-22">
          <mxGeometry relative="1" as="geometry">
            <Array as="points">
              <mxPoint x="530" y="735.5" />
              <mxPoint x="365" y="735.5" />
            </Array>
          </mxGeometry>
        </mxCell>
        <mxCell id="sK-Bba4RvZeUdaHI4gVQ-19" value="Negatif" style="whiteSpace=wrap;html=1;rounded=1;" vertex="1" parent="WIyWlLk6GJQsqaUBKTNV-1">
          <mxGeometry x="470" y="645.5" width="120" height="60" as="geometry" />
        </mxCell>
        <mxCell id="sK-Bba4RvZeUdaHI4gVQ-28" value="" style="edgeStyle=orthogonalEdgeStyle;rounded=0;orthogonalLoop=1;jettySize=auto;html=1;" edge="1" parent="WIyWlLk6GJQsqaUBKTNV-1" source="sK-Bba4RvZeUdaHI4gVQ-22" target="sK-Bba4RvZeUdaHI4gVQ-27">
          <mxGeometry relative="1" as="geometry" />
        </mxCell>
        <mxCell id="sK-Bba4RvZeUdaHI4gVQ-22" value="Evaluasi dan Testing" style="rounded=1;whiteSpace=wrap;html=1;" vertex="1" parent="WIyWlLk6GJQsqaUBKTNV-1">
          <mxGeometry x="305" y="785.5" width="120" height="60" as="geometry" />
        </mxCell>
        <mxCell id="sK-Bba4RvZeUdaHI4gVQ-27" value="Selesai" style="ellipse;whiteSpace=wrap;html=1;rounded=1;" vertex="1" parent="WIyWlLk6GJQsqaUBKTNV-1">
          <mxGeometry x="327.5" y="895.5" width="75" height="50" as="geometry" />
        </mxCell>
        <mxCell id="sK-Bba4RvZeUdaHI4gVQ-31" style="edgeStyle=orthogonalEdgeStyle;rounded=0;orthogonalLoop=1;jettySize=auto;html=1;" edge="1" parent="WIyWlLk6GJQsqaUBKTNV-1" source="sK-Bba4RvZeUdaHI4gVQ-30" target="sK-Bba4RvZeUdaHI4gVQ-4">
          <mxGeometry relative="1" as="geometry" />
        </mxCell>
        <mxCell id="sK-Bba4RvZeUdaHI4gVQ-30" value="labeling" style="rounded=1;whiteSpace=wrap;html=1;" vertex="1" parent="WIyWlLk6GJQsqaUBKTNV-1">
          <mxGeometry x="305" y="230" width="120" height="60" as="geometry" />
        </mxCell>
        <mxCell id="sK-Bba4RvZeUdaHI4gVQ-32" style="edgeStyle=orthogonalEdgeStyle;rounded=0;orthogonalLoop=1;jettySize=auto;html=1;entryX=0.5;entryY=0;entryDx=0;entryDy=0;" edge="1" parent="WIyWlLk6GJQsqaUBKTNV-1" source="sK-Bba4RvZeUdaHI4gVQ-33" target="sK-Bba4RvZeUdaHI4gVQ-34">
          <mxGeometry relative="1" as="geometry" />
        </mxCell>
        <mxCell id="sK-Bba4RvZeUdaHI4gVQ-33" value="Mulai" style="ellipse;whiteSpace=wrap;html=1;" vertex="1" parent="WIyWlLk6GJQsqaUBKTNV-1">
          <mxGeometry x="330" y="60" width="70" height="50" as="geometry" />
        </mxCell>
        <mxCell id="sK-Bba4RvZeUdaHI4gVQ-35" style="edgeStyle=orthogonalEdgeStyle;rounded=0;orthogonalLoop=1;jettySize=auto;html=1;" edge="1" parent="WIyWlLk6GJQsqaUBKTNV-1" source="sK-Bba4RvZeUdaHI4gVQ-34" target="sK-Bba4RvZeUdaHI4gVQ-30">
          <mxGeometry relative="1" as="geometry" />
        </mxCell>
        <mxCell id="sK-Bba4RvZeUdaHI4gVQ-34" value="Scarpping data" style="rounded=1;whiteSpace=wrap;html=1;" vertex="1" parent="WIyWlLk6GJQsqaUBKTNV-1">
          <mxGeometry x="305" y="140" width="120" height="60" as="geometry" />
        </mxCell>
      </root>
    </mxGraphModel>
  </diagram>
</mxfile>
